<?xml version="1.0" encoding="utf-8"?>
<!-- Generator: Adobe Illustrator 22.1.0, SVG Export Plug-In . SVG Version: 6.00 Build 0)  -->
<svg version="1.0" id="Layer_1" xmlns="http://www.w3.org/2000/svg" xmlns:xlink="http://www.w3.org/1999/xlink" x="0px" y="0px"
	 viewBox="0 0 1024 1024" style="enable-background:new 0 0 1024 1024;" xml:space="preserve">
<style type="text/css">
	.st0{fill:#FFFFFF;}
</style>
<rect class="st0" width="1024" height="1024"/>
<g>
	<path d="M347.9,569.6v21H251v-23.1c-13.8,16.2-34.8,26.1-62.1,26.1c-65.1,0-101.4-31.2-101.4-81.9c0-42.9,33-80.1,98.4-80.1
		c26.7,0,47.7,7.2,62.1,20.7v-50.7h-22.5v-21h99.9v189H347.9z M251,513.5c0-29.7-12.9-54.3-36.9-54.3c-20.4,0-36.9,17.7-36.9,52.2
		c0,36,18.6,54.9,36.9,54.9C232.7,566.3,251,550.1,251,513.5z"/>
	<path d="M532.3,434.6v71.1h-31.8v-12.9c0-11.7-5.7-18.6-14.4-18.6c-10.2,0-18.9,3.3-26.4,13.2v82.2h34.5v21H360.7v-21h22.5v-114
		h-22.5v-21h99v28.5c13.8-26.1,33.9-29.7,51.6-29.7C518.8,433.4,526.6,433.7,532.3,434.6z"/>
	<path d="M669.4,569.6v21H548.2v-21h22.2v-114h-22.2v-21h30.3c20.1,3.6,39.9,3.6,60,0h8.4v135H669.4z M565,404
		c0-16.5,14.4-24.6,43.8-24.6c29.4,0,43.8,8.1,43.8,24.6c0,16.8-14.4,24.9-43.8,24.9S565,420.8,565,404z"/>
	<path d="M936.5,513.5c0,42.9-33,80.1-98.4,80.1c-26.7,0-47.7-7.2-62.1-20.7v50.7h22.5v21h-99.9v-0.3h-22.5v-21h22.5V455.6h-22.5
		v-21H773v23.1c13.8-16.2,34.8-26.1,62.1-26.1C900.2,431.6,936.5,462.8,936.5,513.5z M846.8,513.8c0-36-18.6-54.9-36.9-54.9
		c-18.6,0-36.9,16.2-36.9,52.8c0,29.7,12.9,54.3,36.9,54.3C830.3,566,846.8,548.3,846.8,513.8z"/>
</g>
</svg>
