<?xml version="1.0" encoding="utf-8"?>
<!-- Generator: Adobe Illustrator 22.1.0, SVG Export Plug-In . SVG Version: 6.00 Build 0)  -->
<svg version="1.0" id="Layer_1" xmlns="http://www.w3.org/2000/svg" xmlns:xlink="http://www.w3.org/1999/xlink" x="0px" y="0px"
	 viewBox="0 0 141.7 141.7" style="enable-background:new 0 0 141.7 141.7;" xml:space="preserve">
<style type="text/css">
	.st0{fill:#FFFFFF;}
</style>
<rect class="st0" width="141.7" height="141.7"/>
<g>
	<path d="M72.6,33.1v74.4H59.9V75.7H28.5v31.9H15.9V33.1h12.7v30.9h31.4V33.1H72.6z"/>
	<path d="M125.8,54.4v53.2h-12.3v-4.7h-0.3c-3.7,3.4-9,5.7-15.5,5.7c-12.5,0-20-6.5-20-17.5c0-10.4,7.7-16.7,20.8-16.7h14.7V66H86.5
		V54.4H125.8z M113.2,92.6v-9.9H99.8c-5.4,0-8.9,2.6-8.9,7c0,5.1,3.8,8,9.9,8C107.2,97.7,111.5,94.8,113.2,92.6z"/>
</g>
</svg>
