<?xml version="1.0" encoding="utf-8"?>
<!-- Generator: Adobe Illustrator 22.1.0, SVG Export Plug-In . SVG Version: 6.00 Build 0)  -->
<svg version="1.0" id="Layer_1" xmlns="http://www.w3.org/2000/svg" xmlns:xlink="http://www.w3.org/1999/xlink" x="0px" y="0px"
	 viewBox="0 0 141.7 141.7" style="enable-background:new 0 0 141.7 141.7;" xml:space="preserve">
<style type="text/css">
	.st0{fill:#FFFFFF;}
</style>
<rect class="st0" width="141.7" height="141.7"/>
<g>
	<path d="M133.8,102.9v11.8H79.4v-7.4c-12.3,5.7-26.4,9.1-38.7,9.1C22.5,116.4,8,109,8,88.8c0-26.1,32.8-31.5,61.1-31.5h10.3
		C78.7,45,73.1,42.7,66.1,42.7c-6.4,0-14.8,2.4-25.8,12.6h-7.6V27.2h12.6v12.6c13.1-12.5,29.8-14.5,39.6-14.5
		c22.7,0,36.2,8.4,36.2,33.2v44.4H133.8z M79.4,94V66.9h-6.1c-14.1,0-23.6,4.2-23.6,15.2c0,9.6,6.2,14.6,16,14.6
		C69.8,96.7,74.3,95.9,79.4,94z"/>
</g>
</svg>
