<svg xmlns="http://www.w3.org/2000/svg" viewBox="0 0 900 900"><defs><style>.cls-1{isolation:isolate;}.cls-2,.cls-3{fill:#fff;}.cls-3{mix-blend-mode:exclusion;}</style></defs><title>tex</title><g class="cls-1"><g id="Layer_2" data-name="Layer 2"><rect class="cls-2" width="450" height="450"/><polygon points="225 0 0 450 450 0 225 0"/><polygon points="98.21 206.5 169.8 29 40.7 29 23.54 206.5 98.21 206.5"/><polygon class="cls-2" points="219.96 206.5 380.3 29 251.2 29 145.29 206.5 219.96 206.5"/><polygon points="14.92 413 83.29 243.5 19.96 243.5 3.58 413 14.92 413"/><polygon class="cls-2" points="33.42 413 186.54 243.5 123.21 243.5 22.08 413 33.42 413"/><polygon points="450 450 0 450 450 225 450 450"/><polygon class="cls-2" points="243.5 351.79 421 280.2 421 409.3 243.5 426.46 243.5 351.79"/><polygon points="243.5 230.04 421 69.7 421 198.8 243.5 304.71 243.5 230.04"/><polygon class="cls-2" points="37 435.08 206.5 366.71 206.5 430.04 37 446.42 37 435.08"/><polygon points="37 416.58 206.5 263.46 206.5 326.79 37 427.92 37 416.58"/><rect class="cls-2" y="450" width="450" height="450" transform="translate(900 450) rotate(90)"/><polygon points="450 675 0 450 450 900 450 675"/><polygon points="243.5 548.21 421 619.8 421 490.7 243.5 473.54 243.5 548.21"/><polygon class="cls-2" points="243.5 669.96 421 830.3 421 701.2 243.5 595.29 243.5 669.96"/><polygon points="37 464.92 206.5 533.29 206.5 469.96 37 453.58 37 464.92"/><polygon class="cls-2" points="37 483.42 206.5 636.54 206.5 573.21 37 472.08 37 483.42"/><polygon points="0 900 0 450 225 900 0 900"/><polygon class="cls-2" points="98.21 693.5 169.8 871 40.7 871 23.54 693.5 98.21 693.5"/><polygon points="219.96 693.5 380.3 871 251.2 871 145.29 693.5 219.96 693.5"/><polygon class="cls-2" points="14.92 487 83.29 656.5 19.96 656.5 3.58 487 14.92 487"/><polygon points="33.42 487 186.54 656.5 123.21 656.5 22.08 487 33.42 487"/><rect class="cls-3" y="428" width="22" height="44"/><rect class="cls-3" y="308.5" width="141.5" height="283"/><rect class="cls-3" y="225" width="225" height="450"/><rect class="cls-3" y="117.5" width="332.5" height="672.5"/><rect class="cls-2" x="450" y="450" width="450" height="450" transform="translate(1350 1350) rotate(180)"/><polygon points="675 900 900 450 450 900 675 900"/><polygon points="801.79 693.5 730.2 871 859.3 871 876.46 693.5 801.79 693.5"/><polygon class="cls-2" points="680.04 693.5 519.7 871 648.8 871 754.71 693.5 680.04 693.5"/><polygon points="885.08 487 816.71 656.5 880.04 656.5 896.42 487 885.08 487"/><polygon class="cls-2" points="866.58 487 713.46 656.5 776.79 656.5 877.92 487 866.58 487"/><polygon points="450 450 900 450 450 675 450 450"/><polygon class="cls-2" points="656.5 548.21 479 619.8 479 490.7 656.5 473.54 656.5 548.21"/><polygon points="656.5 669.96 479 830.3 479 701.2 656.5 595.29 656.5 669.96"/><polygon class="cls-2" points="863 464.92 693.5 533.29 693.5 469.96 863 453.58 863 464.92"/><polygon points="863 483.42 693.5 636.54 693.5 573.21 863 472.08 863 483.42"/><rect class="cls-2" x="450" width="450" height="450" transform="translate(450 900) rotate(-90)"/><polygon points="450 225 900 450 450 0 450 225"/><polygon points="656.5 351.79 479 280.2 479 409.3 656.5 426.46 656.5 351.79"/><polygon class="cls-2" points="656.5 230.04 479 69.7 479 198.8 656.5 304.71 656.5 230.04"/><polygon points="863 435.08 693.5 366.71 693.5 430.04 863 446.42 863 435.08"/><polygon class="cls-2" points="863 416.58 693.5 263.46 693.5 326.79 863 427.92 863 416.58"/><polygon points="900 0 900 450 675 0 900 0"/><polygon class="cls-2" points="801.79 206.5 730.2 29 859.3 29 876.46 206.5 801.79 206.5"/><polygon points="680.04 206.5 519.7 29 648.8 29 754.71 206.5 680.04 206.5"/><polygon class="cls-2" points="885.08 413 816.71 243.5 880.04 243.5 896.42 413 885.08 413"/><polygon points="866.58 413 713.46 243.5 776.79 243.5 877.92 413 866.58 413"/><rect class="cls-3" x="878" y="428" width="22" height="44" transform="translate(1778 900) rotate(180)"/><rect class="cls-3" x="758.5" y="308.5" width="141.5" height="283" transform="translate(1658.5 900) rotate(180)"/><rect class="cls-3" x="675" y="225" width="225" height="450" transform="translate(1575 900) rotate(180)"/><rect class="cls-3" x="567.5" y="110" width="332.5" height="672.5" transform="translate(1467.5 892.5) rotate(180)"/></g></g></svg>