<svg xmlns="http://www.w3.org/2000/svg" viewBox="0 0 2000 2000"><defs><style>.cls-1{isolation:isolate;}.cls-2,.cls-3{fill:#fff;}.cls-3{mix-blend-mode:exclusion;}</style></defs><title>tx</title><g class="cls-1"><g id="Layer_2" data-name="Layer 2"><rect class="cls-2" width="1000" height="1000"/><polygon points="500 0 0 1000 1000 0 500 0"/><polygon points="218.25 458.89 377.34 64.44 90.44 64.44 52.31 458.89 218.25 458.89"/><polygon class="cls-2" points="488.8 458.89 845.12 64.44 558.22 64.44 322.86 458.89 488.8 458.89"/><polygon points="33.16 917.78 185.09 541.11 44.36 541.11 7.95 917.78 33.16 917.78"/><polygon class="cls-2" points="74.27 917.78 414.53 541.11 273.8 541.11 49.06 917.78 74.27 917.78"/><polygon points="1000 1000 0 1000 1000 500 1000 1000"/><polygon class="cls-2" points="541.11 781.75 935.56 622.66 935.56 909.56 541.11 947.69 541.11 781.75"/><polygon points="541.11 511.2 935.56 154.88 935.56 441.79 541.11 677.14 541.11 511.2"/><polygon class="cls-2" points="82.22 966.84 458.89 814.91 458.89 955.64 82.22 992.05 82.22 966.84"/><polygon points="82.22 925.73 458.89 585.47 458.89 726.2 82.22 950.94 82.22 925.73"/><rect class="cls-2" y="1000" width="1000" height="1000" transform="translate(2000 1000) rotate(90)"/><polygon points="1000 1500 0 1000 1000 2000 1000 1500"/><polygon points="541.11 1218.25 935.56 1377.34 935.56 1090.44 541.11 1052.31 541.11 1218.25"/><polygon class="cls-2" points="541.11 1488.8 935.56 1845.12 935.56 1558.21 541.11 1322.86 541.11 1488.8"/><polygon points="82.22 1033.16 458.89 1185.09 458.89 1044.36 82.22 1007.95 82.22 1033.16"/><polygon class="cls-2" points="82.22 1074.27 458.89 1414.53 458.89 1273.8 82.22 1049.06 82.22 1074.27"/><polygon points="0 2000 0 1000 500 2000 0 2000"/><polygon class="cls-2" points="218.25 1541.11 377.34 1935.56 90.44 1935.56 52.31 1541.11 218.25 1541.11"/><polygon points="488.8 1541.11 845.12 1935.56 558.22 1935.56 322.86 1541.11 488.8 1541.11"/><polygon class="cls-2" points="33.16 1082.22 185.09 1458.89 44.36 1458.89 7.95 1082.22 33.16 1082.22"/><polygon points="74.27 1082.22 414.53 1458.89 273.8 1458.89 49.06 1082.22 74.27 1082.22"/><rect class="cls-3" y="951.11" width="48.89" height="97.78"/><rect class="cls-3" y="685.56" width="314.44" height="628.89"/><rect class="cls-3" y="500" width="500" height="1000"/><rect class="cls-3" y="261.11" width="738.89" height="1494.44"/><rect class="cls-2" x="1000" y="1000" width="1000" height="1000" transform="translate(3000 3000) rotate(180)"/><polygon points="1500 2000 2000 1000 1000 2000 1500 2000"/><polygon points="1781.75 1541.11 1622.66 1935.56 1909.56 1935.56 1947.69 1541.11 1781.75 1541.11"/><polygon class="cls-2" points="1511.2 1541.11 1154.88 1935.56 1441.79 1935.56 1677.14 1541.11 1511.2 1541.11"/><polygon points="1966.84 1082.22 1814.91 1458.89 1955.64 1458.89 1992.05 1082.22 1966.84 1082.22"/><polygon class="cls-2" points="1925.73 1082.22 1585.47 1458.89 1726.2 1458.89 1950.94 1082.22 1925.73 1082.22"/><polygon points="1000 1000 2000 1000 1000 1500 1000 1000"/><polygon class="cls-2" points="1458.89 1218.25 1064.44 1377.34 1064.44 1090.44 1458.89 1052.31 1458.89 1218.25"/><polygon points="1458.89 1488.8 1064.44 1845.12 1064.44 1558.21 1458.89 1322.86 1458.89 1488.8"/><polygon class="cls-2" points="1917.78 1033.16 1541.11 1185.09 1541.11 1044.36 1917.78 1007.95 1917.78 1033.16"/><polygon points="1917.78 1074.27 1541.11 1414.53 1541.11 1273.8 1917.78 1049.06 1917.78 1074.27"/><rect class="cls-2" x="1000" width="1000" height="1000" transform="translate(1000 2000) rotate(-90)"/><polygon points="1000 500 2000 1000 1000 0 1000 500"/><polygon points="1458.89 781.75 1064.44 622.66 1064.44 909.56 1458.89 947.69 1458.89 781.75"/><polygon class="cls-2" points="1458.89 511.2 1064.44 154.88 1064.44 441.79 1458.89 677.14 1458.89 511.2"/><polygon points="1917.78 966.84 1541.11 814.91 1541.11 955.64 1917.78 992.05 1917.78 966.84"/><polygon class="cls-2" points="1917.78 925.73 1541.11 585.47 1541.11 726.2 1917.78 950.94 1917.78 925.73"/><polygon points="2000 0 2000 1000 1500 0 2000 0"/><polygon class="cls-2" points="1781.75 458.89 1622.66 64.44 1909.56 64.44 1947.69 458.89 1781.75 458.89"/><polygon points="1511.2 458.89 1154.88 64.44 1441.79 64.44 1677.14 458.89 1511.2 458.89"/><polygon class="cls-2" points="1966.84 917.78 1814.91 541.11 1955.64 541.11 1992.05 917.78 1966.84 917.78"/><polygon points="1925.73 917.78 1585.47 541.11 1726.2 541.11 1950.94 917.78 1925.73 917.78"/><rect class="cls-3" x="1951.11" y="951.11" width="48.89" height="97.78" transform="translate(3951.11 2000) rotate(180)"/><rect class="cls-3" x="1685.56" y="685.56" width="314.44" height="628.89" transform="translate(3685.56 2000) rotate(180)"/><rect class="cls-3" x="1500" y="500" width="500" height="1000" transform="translate(3500 2000) rotate(180)"/><rect class="cls-3" x="1261.11" y="244.44" width="738.89" height="1494.44" transform="translate(3261.11 1983.33) rotate(180)"/></g></g></svg>